HIERARCHY
ROOT hip
{
	OFFSET 0.000000 0.000000 0.000000 
	CHANNELS 6 Xposition Yposition Zposition Xrotation Zrotation Yrotation
	JOINT abdomen
	{
		OFFSET 0.000000 3.402643 0.000000 
		CHANNELS 3 Xrotation Zrotation Yrotation
		JOINT chest
		{
			OFFSET 0.000000 8.438565 -0.680529 
			CHANNELS 3 Xrotation Zrotation Yrotation
			JOINT neck
			{
				OFFSET 0.000000 10.207942 -0.272212 
				CHANNELS 3 Xrotation Zrotation Yrotation
				JOINT head
				{
					OFFSET 0.000000 3.130431 0.000000 
					CHANNELS 3 Xrotation Zrotation Yrotation
					End Site
					{
						OFFSET 0.000000 3.130435 0.000000 
					}
				}
			}
			JOINT lCollar
			{
				OFFSET 3.470700 6.669187 -0.816635 
				CHANNELS 3 Yrotation Zrotation Xrotation
				JOINT lShldr
				{
					OFFSET 3.198488 0.000000 0.000000 
					CHANNELS 3 Zrotation Yrotation Xrotation
					JOINT lForeArm
					{
						OFFSET 10.139888 0.000000 0.000000 
						CHANNELS 3 Yrotation Zrotation Xrotation
						JOINT lHand
						{
							OFFSET 8.370511 0.000000 0.000000 
							CHANNELS 3 Zrotation Yrotation Xrotation
							End Site
							{
								OFFSET 4.083176 0.000000 0.000000 
							}
						}
					}
				}
			}
			JOINT rCollar
			{
				OFFSET -3.470700 6.669187 -0.816635 
				CHANNELS 3 Yrotation Zrotation Xrotation
				JOINT rShldr
				{
					OFFSET -3.198488 0.000000 0.000000 
					CHANNELS 3 Zrotation Yrotation Xrotation
					JOINT rForeArm
					{
						OFFSET -10.139888 0.000000 0.000000 
						CHANNELS 3 Yrotation Zrotation Xrotation
						JOINT rHand
						{
							OFFSET -8.370511 0.000000 0.000000 
							CHANNELS 3 Zrotation Yrotation Xrotation
							End Site
							{
								OFFSET -4.083176 0.000000 0.000000 
							}
						}
					}
				}
			}
		}
	}
	JOINT lThigh
	{
		OFFSET 5.308129 -1.633274 1.361059 
		CHANNELS 3 Xrotation Zrotation Yrotation
		JOINT lShin
		{
			OFFSET -2.041588 -20.007561 0.000000 
			CHANNELS 3 Xrotation Zrotation Yrotation
			JOINT lFoot
			{
				OFFSET 0.000000 -19.190928 -1.224953 
				CHANNELS 3 Xrotation Yrotation Zrotation
				End Site
				{
					OFFSET 0.000000 -2.449906 4.627600 
				}
			}
		}
	}
	JOINT rThigh
	{
		OFFSET -5.308129 -1.633274 1.361059 
		CHANNELS 3 Xrotation Zrotation Yrotation
		JOINT rShin
		{
			OFFSET 2.041588 -20.007561 0.000000 
			CHANNELS 3 Xrotation Zrotation Yrotation
			JOINT rFoot
			{
				OFFSET 0.000000 -19.190928 -1.224953 
				CHANNELS 3 Xrotation Yrotation Zrotation
				End Site
				{
					OFFSET 0.000000 -2.449906 4.627600 
				}
			}
		}
	}
}
MOTION
Frames: 6
Frame Time: 0.011111
-12.260589 52.809238 28.898487 1.717317 -8.618127 110.525803 29.963558 -11.964804 -4.234655 -23.081800 -2.882149 0.607630 -0.540793 -16.662342 -15.664674 -31.614952 37.671310 -45.792847 -10.275489 -5.709454 -1.550532 -67.075249 -32.892712 34.942665 -94.545586 8.426931 37.717457 8.524705 12.647240 -78.362686 5.831508 6.350754 -0.460990 146.078552 96.401878 23.985106 40.239586 -4.837678 4.479784 -8.534408 -12.637552 -78.423965 -10.637766 3.385218 8.766865 34.816101 -5.036341 -5.464514 -10.033753 -31.782328 -11.367539 -29.108330 -17.389814 -13.812788 34.032681 5.078021 5.348467 -8.143602 16.109402 6.285693 
-12.087063 52.817673 28.769865 1.713405 -8.639173 111.309349 29.812086 -12.169127 -5.057218 -22.730614 -2.460487 0.427744 -0.692160 -16.222851 -15.943579 -29.915350 36.937672 -45.496571 -10.275489 -5.709454 -1.550532 -66.707298 -33.244152 34.268356 -94.030113 8.196452 37.447872 8.524705 12.647240 -78.020889 5.831508 6.350754 -0.460990 -21.558182 83.692749 -142.543381 40.229301 -4.831162 4.472382 -8.534408 -12.637552 -75.572411 -10.128878 3.267164 9.375147 34.398766 -5.060181 -5.424629 -9.374826 -32.595219 -11.251060 -28.617601 -17.319235 -12.698381 32.570560 5.165160 5.166113 -10.200306 16.919947 7.033081 
-11.890243 52.784927 28.629421 1.530086 -8.504889 111.833321 29.601776 -11.945610 -5.639388 -22.573927 -2.582751 0.250694 -0.835459 -16.075321 -16.045084 -28.340261 37.209362 -45.225990 -10.275489 -5.709454 -1.550532 -66.117630 -32.974178 33.370407 -93.693077 8.038059 37.270580 8.524705 12.647240 -77.669327 5.831508 6.350754 -0.460990 -5.540892 83.475632 -124.800331 40.198746 -4.819655 4.466221 -8.534408 -12.637552 -71.714989 -9.713511 3.328450 9.329385 34.239494 -5.075220 -5.395698 -9.404255 -32.882092 -11.375448 -28.052956 -16.959728 -11.866579 31.941435 5.214585 5.084271 -13.995307 16.744326 7.978641 
-11.673166 52.729221 28.483915 1.333040 -8.226331 112.085945 29.391397 -11.654870 -5.952991 -22.465599 -2.920490 0.116192 -0.828142 -15.673587 -16.141560 -26.956282 37.066097 -44.816570 -10.275489 -5.709454 -1.550532 -65.430679 -32.316917 32.339985 -93.474319 7.930508 37.158470 8.524705 12.647240 -77.161507 5.831508 6.350754 -0.460990 8.845012 82.831154 -109.677086 40.047260 -4.767582 4.411834 -8.534408 -12.637552 -68.804825 -9.334169 3.377975 8.660110 34.388523 -5.065662 -5.415649 -10.149907 -32.671078 -11.706567 -27.370068 -16.345240 -11.104205 32.013634 5.194324 5.085765 -17.197186 13.872337 7.665540 
-11.453726 52.645157 28.338411 1.179339 -7.922286 111.985619 29.276049 -11.122257 -6.494279 -22.562429 -3.303508 -0.097460 -1.153183 -15.525157 -15.913730 -25.287983 36.953087 -43.750172 -10.275489 -5.709454 -1.550532 -64.866554 -31.273842 30.464863 -93.396217 7.894489 37.114632 8.524705 12.647240 -76.565804 5.831508 6.350754 -0.460990 22.246441 81.478676 -94.156860 40.006451 -4.749429 4.398394 -8.534408 -12.637552 -64.625137 -9.052128 3.456836 8.042867 34.844856 -5.045952 -5.460207 -11.249429 -32.309547 -12.167800 -26.606682 -15.611402 -10.144921 32.600544 5.165269 5.159051 -18.379091 10.947570 6.734409 
-11.232598 52.554684 28.193243 0.930605 -7.567918 111.517967 29.137712 -10.390329 -6.935442 -22.601261 -3.422759 -0.324043 -1.975597 -15.589565 -15.482946 -23.253492 36.450878 -42.231586 -10.275489 -5.709454 -1.550532 -64.753777 -30.244722 28.010124 -93.408180 7.897212 37.124825 8.524705 12.647240 -75.696663 5.831508 6.350754 -0.460990 30.443956 79.514481 -82.354797 40.027233 -4.761949 4.403367 -8.534408 -12.637552 -59.429832 -8.872295 3.698492 7.593515 35.550140 -4.997416 -5.546857 -12.461883 -31.776167 -12.610693 -25.631952 -14.607309 -9.213452 33.526386 5.106517 5.273531 -18.822962 9.442251 6.211379 
